<svg data-v-423bf9ae="" xmlns="http://www.w3.org/2000/svg" viewBox="0 0 555 100" class="iconLeft"><!----><!----><!----><g data-v-423bf9ae="" id="d36a8de9-9eb0-4be5-a833-990818028dc6" fill="white" transform="matrix(4.335260366540335,0,0,4.335260366540335,124.47504834222121,8.494970844146309)"><path d="M0.19 13.78L2.13 2.80L5.82 2.80L5.82 2.80Q6.77 2.80 7.46 3.17L7.46 3.17L7.46 3.17Q8.16 3.54 8.51 4.22L8.51 4.22L8.51 4.22Q8.87 4.90 8.87 5.81L8.87 5.81L8.87 5.81Q8.87 6.23 8.79 6.69L8.79 6.69L8.79 6.69Q8.60 7.76 7.99 8.54L7.99 8.54L7.99 8.54Q7.39 9.32 6.50 9.74L6.50 9.74L6.50 9.74Q5.61 10.15 4.57 10.15L4.57 10.15L3.90 10.15L3.26 13.78L0.19 13.78ZM4.29 7.98L4.61 7.98L4.61 7.98Q4.87 7.98 5.13 7.75L5.13 7.75L5.13 7.75Q5.39 7.51 5.58 7.12L5.58 7.12L5.58 7.12Q5.78 6.72 5.86 6.25L5.86 6.25L5.86 6.25Q5.90 6.03 5.90 5.86L5.90 5.86L5.90 5.86Q5.90 5.16 5.26 5.16L5.26 5.16L4.78 5.16L4.29 7.98ZM8.51 13.78L9.95 5.63L12.39 5.63L12.33 6.81L12.46 6.81L12.46 6.81Q12.76 6.10 13.14 5.79L13.14 5.79L13.14 5.79Q13.51 5.48 14.04 5.48L14.04 5.48L14.04 5.48Q14.36 5.48 14.87 5.63L14.87 5.63L14.37 8.39L14.37 8.39Q14.14 8.34 13.87 8.34L13.87 8.34L13.87 8.34Q13.24 8.34 12.78 8.78L12.78 8.78L12.78 8.78Q12.33 9.21 12.15 10.16L12.15 10.16L11.52 13.78L8.51 13.78ZM17.55 13.96L17.55 13.96Q16.05 13.96 15.24 13.18L15.24 13.18L15.24 13.18Q14.44 12.40 14.44 10.84L14.44 10.84L14.44 10.84Q14.44 10.24 14.56 9.52L14.56 9.52L14.56 9.52Q14.93 7.42 15.98 6.45L15.98 6.45L15.98 6.45Q17.02 5.48 18.69 5.48L18.69 5.48L18.69 5.48Q20.21 5.48 21 6.23L21 6.23L21 6.23Q21.79 6.99 21.79 8.54L21.79 8.54L21.79 8.54Q21.79 9.15 21.66 9.94L21.66 9.94L21.66 9.94Q21.29 12.01 20.26 12.98L20.26 12.98L20.26 12.98Q19.24 13.96 17.55 13.96L17.55 13.96ZM17.54 11.81L17.54 11.81Q17.84 11.81 18.08 11.62L18.08 11.62L18.08 11.62Q18.31 11.43 18.51 10.92L18.51 10.92L18.51 10.92Q18.71 10.42 18.87 9.50L18.87 9.50L18.87 9.50Q19.04 8.55 19.04 8.16L19.04 8.16L19.04 8.16Q19.04 7.92 18.99 7.80L18.99 7.80L18.99 7.80Q18.94 7.68 18.86 7.65L18.86 7.65L18.86 7.65Q18.77 7.61 18.63 7.61L18.63 7.61L18.63 7.61Q18.35 7.61 18.14 7.79L18.14 7.79L18.14 7.79Q17.92 7.96 17.72 8.47L17.72 8.47L17.72 8.47Q17.52 8.98 17.36 9.92L17.36 9.92L17.36 9.92Q17.19 10.81 17.19 11.25L17.19 11.25L17.19 11.25Q17.19 11.59 17.28 11.70L17.28 11.70L17.28 11.70Q17.36 11.81 17.54 11.81L17.54 11.81ZM23.67 4.76L24.01 2.80L26.98 2.80L26.64 4.76L23.67 4.76ZM21.59 16.47L21.59 16.47Q21.18 16.47 20.80 16.45L20.80 16.45L21.02 14.18L21.02 14.18Q21.10 14.20 21.23 14.20L21.23 14.20L21.23 14.20Q21.59 14.20 21.83 13.93L21.83 13.93L21.83 13.93Q22.07 13.67 22.15 13.23L22.15 13.23L23.49 5.63L26.52 5.63L25.18 13.25L25.18 13.25Q24.95 14.51 24.52 15.21L24.52 15.21L24.52 15.21Q24.10 15.91 23.40 16.19L23.40 16.19L23.40 16.19Q22.71 16.47 21.59 16.47L21.59 16.47ZM30.85 5.48L30.85 5.48Q32.35 5.48 33.09 6.20L33.09 6.20L33.09 6.20Q33.83 6.93 33.83 8.23L33.83 8.23L33.83 8.23Q33.83 8.71 33.74 9.19L33.74 9.19L33.74 9.19Q33.65 9.72 33.45 10.38L33.45 10.38L29.54 10.38L29.54 10.38Q29.46 10.69 29.46 10.93L29.46 10.93L29.46 10.93Q29.46 11.31 29.65 11.50L29.65 11.50L29.65 11.50Q29.84 11.68 30.14 11.68L30.14 11.68L30.14 11.68Q30.55 11.68 30.85 11.44L30.85 11.44L30.85 11.44Q31.16 11.20 31.32 10.77L31.32 10.77L33.42 11.41L33.42 11.41Q33.03 12.40 32.50 12.96L32.50 12.96L32.50 12.96Q31.96 13.52 31.33 13.74L31.33 13.74L31.33 13.74Q30.70 13.96 29.92 13.96L29.92 13.96L29.92 13.96Q29.00 13.96 28.27 13.62L28.27 13.62L28.27 13.62Q27.55 13.28 27.12 12.56L27.12 12.56L27.12 12.56Q26.69 11.84 26.69 10.74L26.69 10.74L26.69 10.74Q26.69 10.19 26.80 9.58L26.80 9.58L26.80 9.58Q27.54 5.48 30.85 5.48L30.85 5.48ZM30.99 7.61L30.99 7.61Q30.56 7.61 30.29 7.89L30.29 7.89L30.29 7.89Q30.02 8.16 29.91 8.59L29.91 8.59L31.42 8.59L31.42 8.59Q31.47 8.26 31.47 8.13L31.47 8.13L31.47 8.13Q31.47 7.88 31.36 7.75L31.36 7.75L31.36 7.75Q31.25 7.61 30.99 7.61L30.99 7.61ZM37.32 13.96L37.32 13.96Q36.25 13.96 35.55 13.54L35.55 13.54L35.55 13.54Q34.85 13.12 34.52 12.38L34.52 12.38L34.52 12.38Q34.19 11.65 34.19 10.68L34.19 10.68L34.19 10.68Q34.19 10.16 34.30 9.52L34.30 9.52L34.30 9.52Q34.50 8.34 35.02 7.43L35.02 7.43L35.02 7.43Q35.54 6.53 36.40 6.00L36.40 6.00L36.40 6.00Q37.26 5.48 38.45 5.48L38.45 5.48L38.45 5.48Q40.01 5.48 40.74 6.29L40.74 6.29L40.74 6.29Q41.46 7.10 41.47 8.73L41.47 8.73L39.04 8.97L39.04 8.97Q39.07 8.57 39.07 8.45L39.07 8.45L39.07 8.45Q39.07 8.00 38.96 7.81L38.96 7.81L38.96 7.81Q38.86 7.62 38.64 7.62L38.64 7.62L38.64 7.62Q38.09 7.62 37.72 8.21L37.72 8.21L37.72 8.21Q37.34 8.80 37.14 9.97L37.14 9.97L37.14 9.97Q37.02 10.63 37.02 11.02L37.02 11.02L37.02 11.02Q37.02 11.42 37.15 11.60L37.15 11.60L37.15 11.60Q37.27 11.79 37.55 11.79L37.55 11.79L37.55 11.79Q37.93 11.79 38.25 11.39L38.25 11.39L38.25 11.39Q38.58 10.99 38.78 10.24L38.78 10.24L41.00 10.81L41.00 10.81Q40.65 11.97 40.14 12.66L40.14 12.66L40.14 12.66Q39.63 13.35 38.94 13.65L38.94 13.65L38.94 13.65Q38.25 13.96 37.32 13.96L37.32 13.96ZM44.13 13.78L44.13 13.78Q43.05 13.78 42.55 13.33L42.55 13.33L42.55 13.33Q42.06 12.89 42.06 11.92L42.06 11.92L42.06 11.92Q42.06 11.46 42.16 10.88L42.16 10.88L42.76 7.48L41.97 7.48L42.29 5.63L43.33 5.63L44.30 3.76L46.40 3.76L46.07 5.63L47.35 5.63L47.02 7.48L45.75 7.48L45.25 10.32L45.25 10.32Q45.15 10.86 45.15 11.08L45.15 11.08L45.15 11.08Q45.15 11.27 45.22 11.35L45.22 11.35L45.22 11.35Q45.29 11.44 45.43 11.46L45.43 11.46L45.43 11.46Q45.58 11.48 45.90 11.48L45.90 11.48L46.40 11.48L45.99 13.78L44.13 13.78ZM54.02 13.94L54.02 13.94Q52.21 13.94 51.44 12.88L51.44 12.88L51.44 12.88Q50.67 11.82 50.67 10.08L50.67 10.08L50.67 10.08Q50.67 9.17 50.87 8.08L50.87 8.08L50.87 8.08Q51.28 5.73 52.36 4.18L52.36 4.18L52.36 4.18Q53.44 2.63 55.66 2.63L55.66 2.63L55.66 2.63Q57.28 2.63 58.13 3.44L58.13 3.44L58.13 3.44Q58.97 4.25 58.97 5.85L58.97 5.85L58.97 5.85Q58.97 6.08 58.97 6.20L58.97 6.20L56.33 6.60L56.33 6.60Q56.37 6.23 56.37 6.02L56.37 6.02L56.37 6.02Q56.37 5.57 56.22 5.37L56.22 5.37L56.22 5.37Q56.06 5.17 55.67 5.17L55.67 5.17L55.67 5.17Q55.17 5.17 54.82 5.56L54.82 5.56L54.82 5.56Q54.48 5.94 54.24 6.65L54.24 6.65L54.24 6.65Q54.01 7.36 53.82 8.46L53.82 8.46L53.82 8.46Q53.69 9.18 53.63 9.65L53.63 9.65L53.63 9.65Q53.57 10.11 53.57 10.45L53.57 10.45L53.57 10.45Q53.57 10.92 53.72 11.16L53.72 11.16L53.72 11.16Q53.87 11.40 54.21 11.40L54.21 11.40L54.21 11.40Q54.83 11.40 55.20 10.94L55.20 10.94L55.20 10.94Q55.58 10.49 55.77 9.69L55.77 9.69L58.26 10.56L58.26 10.56Q57.71 12.32 56.66 13.13L56.66 13.13L56.66 13.13Q55.62 13.94 54.02 13.94L54.02 13.94ZM58.67 13.78L60.11 5.63L62.55 5.63L62.49 6.81L62.62 6.81L62.62 6.81Q62.92 6.10 63.30 5.79L63.30 5.79L63.30 5.79Q63.68 5.48 64.20 5.48L64.20 5.48L64.20 5.48Q64.52 5.48 65.03 5.63L65.03 5.63L64.53 8.39L64.53 8.39Q64.31 8.34 64.03 8.34L64.03 8.34L64.03 8.34Q63.40 8.34 62.95 8.78L62.95 8.78L62.95 8.78Q62.49 9.21 62.32 10.16L62.32 10.16L61.68 13.78L58.67 13.78ZM68.74 5.48L68.74 5.48Q70.25 5.48 70.98 6.20L70.98 6.20L70.98 6.20Q71.72 6.93 71.72 8.23L71.72 8.23L71.72 8.23Q71.72 8.71 71.63 9.19L71.63 9.19L71.63 9.19Q71.54 9.72 71.34 10.38L71.34 10.38L67.43 10.38L67.43 10.38Q67.35 10.69 67.35 10.93L67.35 10.93L67.35 10.93Q67.35 11.31 67.54 11.50L67.54 11.50L67.54 11.50Q67.73 11.68 68.03 11.68L68.03 11.68L68.03 11.68Q68.44 11.68 68.75 11.44L68.75 11.44L68.75 11.44Q69.05 11.20 69.21 10.77L69.21 10.77L71.31 11.41L71.31 11.41Q70.92 12.40 70.39 12.96L70.39 12.96L70.39 12.96Q69.86 13.52 69.22 13.74L69.22 13.74L69.22 13.74Q68.59 13.96 67.81 13.96L67.81 13.96L67.81 13.96Q66.89 13.96 66.17 13.62L66.17 13.62L66.17 13.62Q65.44 13.28 65.01 12.56L65.01 12.56L65.01 12.56Q64.59 11.84 64.59 10.74L64.59 10.74L64.59 10.74Q64.59 10.19 64.70 9.58L64.70 9.58L64.70 9.58Q65.43 5.48 68.74 5.48L68.74 5.48ZM68.88 7.61L68.88 7.61Q68.45 7.61 68.18 7.89L68.18 7.89L68.18 7.89Q67.92 8.16 67.81 8.59L67.81 8.59L69.31 8.59L69.31 8.59Q69.36 8.26 69.36 8.13L69.36 8.13L69.36 8.13Q69.36 7.88 69.25 7.75L69.25 7.75L69.25 7.75Q69.15 7.61 68.88 7.61L68.88 7.61ZM76.06 5.48L76.06 5.48Q77.53 5.48 78.33 6.06L78.33 6.06L78.33 6.06Q79.14 6.64 79.14 7.88L79.14 7.88L79.14 7.88Q79.14 8.23 79.06 8.67L79.06 8.67L78.16 13.78L75.59 13.78L75.67 12.75L75.50 12.75L75.50 12.75Q75.28 13.30 74.94 13.56L74.94 13.56L74.94 13.56Q74.60 13.83 74.30 13.89L74.30 13.89L74.30 13.89Q74.00 13.96 73.69 13.96L73.69 13.96L73.69 13.96Q72.76 13.96 72.26 13.55L72.26 13.55L72.26 13.55Q71.76 13.15 71.76 12.33L71.76 12.33L71.76 12.33Q71.76 12.04 71.81 11.76L71.81 11.76L71.81 11.76Q72.01 10.63 73.01 9.84L73.01 9.84L73.01 9.84Q74.14 8.96 76.28 8.50L76.28 8.50L76.29 8.49L76.29 8.49Q76.45 8.05 76.45 7.83L76.45 7.83L76.45 7.83Q76.45 7.65 76.33 7.56L76.33 7.56L76.33 7.56Q76.21 7.46 75.95 7.46L75.95 7.46L75.95 7.46Q75.63 7.46 75.35 7.65L75.35 7.65L75.35 7.65Q75.08 7.83 74.90 8.10L74.90 8.10L74.90 8.10Q74.73 8.38 74.67 8.67L74.67 8.67L72.56 7.71L72.56 7.71Q72.95 6.58 73.88 6.03L73.88 6.03L73.88 6.03Q74.81 5.48 76.06 5.48L76.06 5.48ZM74.81 12.02L74.81 12.02Q75.02 12.02 75.28 11.86L75.28 11.86L75.28 11.86Q75.54 11.70 75.73 11.43L75.73 11.43L75.91 10.33L75.91 10.33Q75.52 10.42 75.20 10.66L75.20 10.66L75.20 10.66Q74.88 10.89 74.70 11.19L74.70 11.19L74.70 11.19Q74.51 11.48 74.51 11.72L74.51 11.72L74.51 11.72Q74.51 11.87 74.59 11.95L74.59 11.95L74.59 11.95Q74.68 12.02 74.81 12.02L74.81 12.02ZM82.11 13.78L82.11 13.78Q81.02 13.78 80.53 13.33L80.53 13.33L80.53 13.33Q80.04 12.89 80.04 11.92L80.04 11.92L80.04 11.92Q80.04 11.46 80.14 10.88L80.14 10.88L80.73 7.48L79.94 7.48L80.27 5.63L81.31 5.63L82.28 3.76L84.38 3.76L84.05 5.63L85.33 5.63L85.00 7.48L83.72 7.48L83.22 10.32L83.22 10.32Q83.13 10.86 83.13 11.08L83.13 11.08L83.13 11.08Q83.13 11.27 83.19 11.35L83.19 11.35L83.19 11.35Q83.26 11.44 83.41 11.46L83.41 11.46L83.41 11.46Q83.55 11.48 83.87 11.48L83.87 11.48L84.37 11.48L83.97 13.78L82.11 13.78ZM88.34 13.96L88.34 13.96Q86.84 13.96 86.03 13.18L86.03 13.18L86.03 13.18Q85.22 12.40 85.22 10.84L85.22 10.84L85.22 10.84Q85.22 10.24 85.35 9.52L85.35 9.52L85.35 9.52Q85.72 7.42 86.76 6.45L86.76 6.45L86.76 6.45Q87.81 5.48 89.48 5.48L89.48 5.48L89.48 5.48Q90.99 5.48 91.79 6.23L91.79 6.23L91.79 6.23Q92.58 6.99 92.58 8.54L92.58 8.54L92.58 8.54Q92.58 9.15 92.44 9.94L92.44 9.94L92.44 9.94Q92.07 12.01 91.05 12.98L91.05 12.98L91.05 12.98Q90.02 13.96 88.34 13.96L88.34 13.96ZM88.33 11.81L88.33 11.81Q88.63 11.81 88.86 11.62L88.86 11.62L88.86 11.62Q89.10 11.43 89.30 10.92L89.30 10.92L89.30 10.92Q89.50 10.42 89.66 9.50L89.66 9.50L89.66 9.50Q89.82 8.55 89.82 8.16L89.82 8.16L89.82 8.16Q89.82 7.92 89.78 7.80L89.78 7.80L89.78 7.80Q89.73 7.68 89.64 7.65L89.64 7.65L89.64 7.65Q89.56 7.61 89.42 7.61L89.42 7.61L89.42 7.61Q89.14 7.61 88.92 7.79L88.92 7.79L88.92 7.79Q88.70 7.96 88.50 8.47L88.50 8.47L88.50 8.47Q88.31 8.98 88.14 9.92L88.14 9.92L88.14 9.92Q87.98 10.81 87.98 11.25L87.98 11.25L87.98 11.25Q87.98 11.59 88.06 11.70L88.06 11.70L88.06 11.70Q88.15 11.81 88.33 11.81L88.33 11.81ZM92.76 13.78L94.20 5.63L96.64 5.63L96.58 6.81L96.71 6.81L96.71 6.81Q97.02 6.10 97.39 5.79L97.39 5.79L97.39 5.79Q97.77 5.48 98.29 5.48L98.29 5.48L98.29 5.48Q98.62 5.48 99.12 5.63L99.12 5.63L98.62 8.39L98.62 8.39Q98.40 8.34 98.12 8.34L98.12 8.34L98.12 8.34Q97.49 8.34 97.04 8.78L97.04 8.78L97.04 8.78Q96.58 9.21 96.41 10.16L96.41 10.16L95.77 13.78L92.76 13.78Z"></path></g><!----><g data-v-423bf9ae="" id="6c67e535-6e75-4fec-af0f-211c1f8d3106" transform="matrix(1.053003184000651,0,0,1.053003184000651,11.930831471338024,5.339000510201004)" stroke="none" fill="white"><path d="M42.361 23.924L53.197 35.06 4.743 88.629c-2.107 2.259-5.872 2.259-8.13 0l-5.866-6.018c-2.258-2.106-2.258-5.868 0-8.124l51.614-50.563zM87.812 35.359l-8.13 8.278c-1.653 1.656-4.214 1.656-6.018 0l-1.805-1.955c-1.355-1.205-1.961-3.463-1.204-4.516 1.35-.902.902-3.611-1.659-6.021-3.607-3.762-8.275-3.911-10.079-1.956-.751.603-3.16 3.16-3.16 3.16L44.619 21.366l1.81-1.807s.448-.451 1.351-1.504c3.463-3.462-.151-7.374-.151-7.374-9.777-9.631-23.471-9.48-23.471-9.48l-.151-3.463c27.539-7.074 37.921 4.967 41.687 8.729 3.456 3.46 7.07 7.071 7.973 7.976 1.955 1.955 0 7.521 2.857 10.685 1.355 1.353 3.16 1.956 4.516 1.956 1.508-1.353 3.911-.902 5.115.451l1.659 1.807c1.651 1.656 1.651 4.213-.002 6.017z"></path></g><!----></svg>